<?xml version="1.0" standalone="no"?>
<!DOCTYPE svg PUBLIC "-//W3C//DTD SVG 20010904//EN"
 "http://www.w3.org/TR/2001/REC-SVG-20010904/DTD/svg10.dtd">
<svg version="1.0" xmlns="http://www.w3.org/2000/svg"
 width="512.000000pt" height="512.000000pt" viewBox="0 0 512.000000 512.000000"
 preserveAspectRatio="xMidYMid meet">
<metadata>
Created by potrace 1.11, written by Peter Selinger 2001-2013
</metadata>
<g transform="translate(0.000000,512.000000) scale(0.100000,-0.100000)"
fill="#000000" stroke="none">
<path d="M0 2560 l0 -2560 2560 0 2560 0 0 2560 0 2560 -2560 0 -2560 0 0
-2560z m3830 1505 l0 -256 44 31 c131 89 327 72 449 -40 104 -95 149 -233 149
-455 0 -268 -73 -430 -230 -507 -62 -31 -73 -33 -172 -33 -91 0 -111 3 -152
24 -26 13 -60 37 -75 53 -32 34 -43 35 -43 6 0 -13 -3 -33 -6 -45 -6 -23 -9
-23 -155 -23 l-149 0 0 750 0 750 170 0 170 0 0 -255z m-2791 -238 c41 -226
77 -423 81 -435 3 -15 41 140 100 412 l95 436 150 0 150 0 95 -431 c59 -268
97 -423 102 -412 4 10 39 196 78 413 39 217 73 403 76 413 5 15 22 17 175 17
93 0 169 -3 169 -7 0 -8 -64 -313 -215 -1023 l-82 -385 -180 -3 -181 -2 -40
167 c-22 93 -64 270 -93 395 -29 125 -54 226 -56 225 -1 -2 -41 -172 -88 -378
-48 -206 -88 -382 -91 -391 -5 -16 -22 -18 -184 -18 -176 0 -178 0 -183 23
-15 61 -297 1382 -297 1391 0 4 78 6 173 6 l172 0 74 -413z m2016 43 c117 -40
195 -111 249 -223 43 -89 56 -160 56 -299 l0 -108 -326 0 -325 0 7 -22 c34
-112 117 -164 246 -156 77 5 130 26 186 73 16 14 32 25 35 25 8 0 147 -168
147 -178 0 -21 -97 -96 -163 -127 -98 -45 -177 -59 -300 -52 -205 10 -359 104
-442 269 -47 95 -58 160 -52 308 8 210 77 350 215 439 125 80 320 101 467 51z
m835 -2140 l0 -750 -165 0 -165 0 0 750 0 750 165 0 165 0 0 -750z m-2090 654
c175 -41 332 -166 408 -324 65 -135 76 -191 76 -370 -1 -126 -5 -170 -22 -234
-63 -230 -232 -398 -458 -456 -68 -18 -111 -20 -361 -20 l-283 0 0 710 0 710
288 0 c222 0 302 -4 352 -16z m1309 -355 c88 -30 175 -99 221 -175 59 -99 72
-152 78 -311 l5 -143 -327 0 -327 0 7 -22 c34 -112 117 -164 246 -156 77 5
130 26 186 73 16 14 32 25 35 25 9 0 147 -167 147 -178 0 -18 -93 -93 -152
-123 -92 -46 -176 -62 -303 -56 -125 6 -200 28 -280 81 -109 73 -190 189 -215
313 -18 85 -8 293 18 363 33 94 62 142 123 202 97 98 223 141 384 133 55 -3
115 -13 154 -26z"/>
<path d="M3945 3636 c-5 -3 -22 -7 -36 -10 -14 -3 -38 -17 -52 -30 l-27 -25 0
-225 0 -224 30 -26 c58 -48 170 -49 221 0 45 43 54 83 54 249 0 140 -2 153
-25 199 -14 28 -37 58 -51 69 -24 17 -92 31 -114 23z"/>
<path d="M2826 3630 c-43 -13 -83 -57 -101 -108 -25 -76 -33 -72 145 -72 l160
0 0 41 c0 53 -23 101 -59 122 -36 21 -106 29 -145 17z"/>
<path d="M1515 2129 c-3 -8 -4 -210 -3 -449 l3 -435 93 2 c112 3 175 27 228
85 70 78 94 170 94 362 0 239 -52 358 -180 415 -60 26 -227 40 -235 20z"/>
<path d="M2876 1790 c-42 -13 -83 -57 -101 -108 -25 -76 -33 -72 146 -72 l161
0 -4 55 c-4 44 -11 62 -33 85 -42 44 -105 59 -169 40z"/>
</g>
</svg>
